<svg xmlns="http://www.w3.org/2000/svg" width="260" height="260" fill-rule="evenodd" clip-rule="evenodd" image-rendering="optimizeQuality" shape-rendering="geometricPrecision" text-rendering="geometricPrecision" version="1.0" viewBox="0 0 120675 120675" id="canada">
  <g>
    <circle cx="60337" cy="60337" r="60337" fill="#e2eaeb"></circle>
    <path fill="#c9d4d5" d="M29145 90108l60890 -60891 30633 30633c2,162 6,324 6,487 0,33323 -27014,60337 -60337,60337 -212,0 -422,-6 -634,-8l-30559 -30559z"></path>
    <circle cx="60337" cy="60337" r="43055" fill="#fff"></circle>
    <path fill="#e31b25" d="M33409 26745l0 67185c-9831-7891-16127-20006-16127-33593 0-13587 6296-25701 16127-33593zm53857 0c9831 7891 16127 20006 16127 33593 0 13587-6296 25701-16127 33593l0-67185zM52781 46444c388 1732 683 3491 1040 5254 120 594 1008 4828 1008 5335-346 24-338-61-748-459l-3720-3518c-137-128-527-542-676-593-71 206-1113 2261-1192 2341-163 79-3302-503-3898-602-413-68-891-173-1321-215 156 714 964 3388 1228 4305 115 400 364 1095 364 1500l-2268 1468c111 175 4427 3582 4483 3625 756 583 1482 1214 2241 1793 111 84 2208 1720 2229 1828 49 256-1003 3166-1162 3647 1220-171 8748-1845 9204-1689 106 214 35 7808 35 8763l1155-36c59-302-122-8133 71-8700 371-67 1862 200 2315 267l6931 1029-423-1816c-101-431-410-1501-383-1879l8783-6846c-36-48-12-24-58-65l-2207-1224c-88-168 1022-4100 1154-4588 129-481 251-1054 401-1500-502 7-4880 1148-5377 1069l-877-2525c-107 38-3944 3421-4420 3852-410 374-444 458-736 431-81-429 1471-9000 1634-10327-190 58-2246 1126-2647 1322-161 78-282 138-437 218-216 112-221 142-522 142-267-544-611-1086-902-1647-289-555-601-1113-902-1649-145-257-1720-3178-1829-3305-107 92-1338 2337-1440 2521l-2158 3840c-178 312-171 426-584 229-457-218-3240-1572-3388-1595z"></path>
  </g>
</svg>
